# xmcd CD database file
#
# Track frame offsets:
#	150
#	11763
#	24063
#	36725
#	48950
#	61275
#	74250
#	87588
#	98313
#	109038
#	119463
#	136350
#	148625
#	160900
#	170988
#	184525
#	198500
#	209813
#
# Disc length: 2956 seconds
#
# Revision: 3
# Processed by: cddbd v1.5.1PL2 Copyright (c) Steve Scherf et al.
# Submitted via: CDex 1.70beta2
#
DISCID=060b8a12
DTITLE=Various Artist - Country Jamboree
DYEAR=1900
DGENRE=Country
TTITLE0=Donna Fargo - 1.Happiest Girl In The Whole USA
TTITLE1=Kenny Rogers - 2.Rueben James
TTITLE2=Lynn Anderson - 3.I Fall to Pieces
TTITLE3=Freddy Fender - 4.Wasted Days and Wasted Nights
TTITLE4=Johnny Cash - 5.Next In Line
TTITLE5=George Jones - 6.When The Grass Grows Over Me
TTITLE6=Don Williams - 7.Where Do We Go From Here
TTITLE7=Everley Bros. - 8.Til' I Kiss Ya
TTITLE8=Waylon Jennings - 9.Burning Memories
TTITLE9=Ricky Nelson - 10.Hello Mary Lou
TTITLE10=Willie Nelson - 11.I let my Mind Wonder
TTITLE11=Oak Ridge Boys - 12.Without God
TTITLE12=George Jones - 13.She Thinks I Still Care
TTITLE13=Dolly Parton - 14.Release Me
TTITLE14=Gene Pitney - 15.24 Hours From Tulsa
TTITLE15=Les Paul and Mary Ford - 16.Tennessee Waltz
TTITLE16=Don Gibson - 17.Oh Lonesome Me
TTITLE17=Frankie Lane - 18.High Noon
EXTD=
EXTT0=
EXTT1=
EXTT2=
EXTT3=
EXTT4=
EXTT5=
EXTT6=
EXTT7=
EXTT8=
EXTT9=
EXTT10=
EXTT11=
EXTT12=
EXTT13=
EXTT14=
EXTT15=
EXTT16=
EXTT17=
PLAYORDER=
